<svg width="64" height="64" viewBox="0 0 64 64" fill="none" xmlns="http://www.w3.org/2000/svg">
<path d="M11.3685 1.66447C8.08687 -0.233009 4 2.15949 4 5.97806V15.4468C4 17.2624 4.98023 18.9335 6.55694 19.8059L22.2052 28.4649C23.694 29.2887 25.4982 29.2797 26.9788 28.4411L34.9114 23.9482C38.247 22.0589 38.2682 17.2183 34.9494 15.2993L11.3685 1.66447Z" fill="#DBD8DE"/>
<path d="M4.09122 59.0215C4.0909 62.8401 8.17756 65.2329 11.4593 63.3357L19.7113 58.5653C21.272 57.6631 22.2212 55.9732 22.1872 54.1576L22.1872 36.4963C22.1548 34.7633 20.8971 33.0075 19.4151 32.1332L11.4991 27.4633C8.21767 25.5275 4.09389 27.9173 4.09356 31.7549L4.09122 59.0215Z" fill="#DBD8DE"/>
<path d="M57.5228 36.7262C60.8256 34.8173 60.8258 30.0077 57.5232 28.0984L49.3329 23.3637C47.7894 22.4713 45.8892 22.4892 44.3624 23.4105L29.0492 32.6503C27.5756 33.5395 26.6672 35.1397 26.6519 36.8731L26.5716 45.9991C26.5378 49.8367 30.6406 52.2637 33.9391 50.3573L57.5228 36.7262Z" fill="#DBD8DE"/>
</svg>
